<svg width="2137" height="3098" viewBox="0 0 2137 3098" fill="none" xmlns="http://www.w3.org/2000/svg">
<g clip-path="url(#clip0_1538_77)">
<path d="M1.40527 1549.01V212.279C1.40527 211.74 1.43735 211.201 1.56567 210.676C1.61379 210.492 1.64587 210.294 1.69398 210.109C1.9025 209.315 2.20725 208.535 2.62427 207.812C26.1221 166.409 57.6075 126.735 108.821 110.925C192.227 86.6781 205.668 151.96 270.788 134.335C340.608 116.852 327.568 51.8537 313.645 8.64926C414.229 -8.55028 866.862 8.42239 1066.44 2.75065H1071.77C1271.34 8.42239 1723.98 -8.55028 1824.56 8.64926C1810.64 51.8537 1797.6 116.866 1867.42 134.335C1932.56 151.96 1945.98 86.6781 2029.39 110.925C2080.6 126.721 2112.08 166.394 2135.58 207.812C2136 208.535 2136.3 209.315 2136.51 210.109C2136.56 210.294 2136.61 210.492 2136.64 210.676C2136.75 211.201 2136.8 211.74 2136.8 212.279V1548.99" stroke="black" stroke-miterlimit="10"/>
<path d="M1.40527 1549.01V2885.72C1.40527 2886.26 1.43735 2886.8 1.56567 2887.32C1.61379 2887.51 1.64587 2887.71 1.69398 2887.89C1.9025 2888.68 2.20725 2889.46 2.62427 2890.19C26.1221 2931.59 57.6075 2971.26 108.821 2987.07C192.227 3011.32 205.668 2946.04 270.788 2963.66C340.608 2981.15 327.568 3046.15 313.645 3089.35C414.229 3106.55 866.862 3089.58 1066.44 3095.25H1071.77C1271.34 3089.58 1723.98 3106.55 1824.56 3089.35C1810.64 3046.15 1797.6 2981.13 1867.42 2963.66C1932.56 2946.04 1945.98 3011.32 2029.39 2987.07C2080.6 2971.28 2112.08 2931.61 2135.58 2890.19C2136 2889.46 2136.3 2888.68 2136.51 2887.89C2136.56 2887.71 2136.61 2887.51 2136.64 2887.32C2136.75 2886.8 2136.8 2886.26 2136.8 2885.72V1549.01" stroke="black" stroke-miterlimit="10"/>
</g>
<defs>
<clipPath id="clip0_1538_77">
<rect width="2137" height="3098" fill="white"/>
</clipPath>
</defs>
</svg>
