<svg width="430" height="340" viewBox="0 0 430 340" fill="none" xmlns="http://www.w3.org/2000/svg">
<mask id="mask0_947_15406" style="mask-type:alpha" maskUnits="userSpaceOnUse" x="0" y="0" width="430" height="340">
<rect width="430" height="340" fill="#D9D9D9"/>
</mask>
<g mask="url(#mask0_947_15406)">
</g>
<g clip-path="url(#clip0_947_15406)">
<path d="M59 114.246C70.0733 118.851 64.436 150.956 65.0064 162.52C65.6104 174.992 67.1204 203.298 59 213.551C70.1069 213.719 71.382 216.846 83.0258 216.846C74.2342 206.122 79.7038 188.943 77.3213 173.95C78.8649 174.522 84.2338 173.58 85.8109 174.286C87.6565 166.823 87.2202 159.461 88.4618 152.065C86.1465 152.166 85.8109 159.696 85.5425 165.277C83.7976 165.748 79.1669 166.756 77.4556 166.252C76.9187 155.326 77.9925 142.955 78.0931 131.962C78.2273 113.607 86.2807 120.129 100.34 119.759C94.1327 127.928 94.1998 178.488 107.991 181.077C112.454 181.917 116.749 178.018 116.347 173.446C115.91 168.84 111.582 165.008 106.884 169.882C92.8911 160.57 103.528 123.524 112.957 114.347C96.3362 111.993 78.3392 111.96 58.9664 114.246" fill="white"/>
<path d="M286.641 114.918C298.788 111.658 298.99 111.792 310.902 114.649C301.339 125.474 306.07 150.586 306.07 162.924C306.07 175.261 299.761 195.028 310.902 214.627C298.654 214.627 298.621 212.946 286.44 212.879C296.741 198.491 291.373 173.749 291.373 162.924C291.373 152.099 295.634 124.096 286.641 114.885" fill="white"/>
<path d="M169.801 113.809C177.384 123.995 175.337 145.645 174.633 162.083C174.633 174.522 178.324 197.987 169.733 212.005C197.148 212.14 196.981 215.569 227.382 215.569C215.168 210.055 212.349 189.851 215.47 178.186C215.47 178.321 215.47 178.455 215.47 178.59C215.134 183.296 222.818 182.422 223.087 177.682C223.422 171.9 215.705 167.966 210.067 176.707C205.537 182.993 209.967 204.643 213.591 208.206C204.967 207.4 194.766 208.442 186.411 208.206C188.223 192.406 187.753 186.221 186.243 170.185C187.652 169.782 189.665 169.782 191.343 169.983C192.149 170.084 192.853 170.589 193.122 171.362C194.397 174.858 194.9 178.455 196.88 180.405C194.766 164.537 197.82 163.226 198.524 147.796C196.142 148.099 194.028 153.108 193.289 157.814C192.887 160.369 192.383 164.537 187.786 164.403L186.377 164.571C188.759 137.576 183.995 118.952 191.444 119.02C196.645 119.087 204.229 119.894 211.342 119.826C209.228 124.062 205.302 145.981 211.98 155.763C215.94 161.579 219.396 160.234 220.671 157.478C222.047 154.486 219.362 151.259 214.497 152.872C214.027 135.963 216.778 128.903 223.053 114.481C198.524 110.683 196.981 111.019 169.801 113.876" fill="white"/>
<path d="M368.618 115.154C360.195 125.844 364.222 149.376 364.222 162.688C364.222 176.001 360.933 206.862 371 216.274C359.289 216.274 359.423 212.442 350.095 212.913C357.947 205.618 356.135 179.901 355.43 167.63C355.363 166.42 354.356 165.479 353.115 165.479C345.397 165.479 341.102 165.311 332.579 165.445C331.035 165.445 329.76 166.723 329.693 168.269C328.586 191.431 328.149 209.148 311.707 228.982C299.292 243.941 259.998 250.026 259.998 225.217C259.998 215.367 272.179 213.114 274.83 220.577C278.319 230.394 268.018 229.721 268.018 229.721C277.313 255.069 309.761 226.662 314.291 212.509C323.25 183.397 307.915 143.594 335.129 121.877C326.472 119.86 310.466 117.608 311.841 106.144C312.848 97.7398 319.291 96.2942 323.888 97.3364C327.579 98.1768 330.834 105.102 324.358 109.506C329.324 119.793 360.128 113.002 368.55 115.187M329.592 155.562C338.485 152.099 345.028 159.259 355.43 155.562C353.182 144.838 352.846 137.207 355.262 124.466C335.699 122.818 332.948 136.534 330.129 151.326C329.626 153.914 329.458 156.536 329.559 159.159V155.562H329.592Z" fill="white"/>
<path d="M193.826 241.05C191.947 239.605 192.014 237.218 192.719 235.436C193.826 232.545 196.846 231.234 199.028 231.604C202.014 232.075 203.39 235.201 202.819 238.159C202.819 238.193 202.819 238.26 202.819 238.294C202.249 241.084 199.699 243.034 196.88 243C145.171 242.563 156.043 162.722 136.01 162.05C133.93 161.982 132.151 163.63 132.051 165.748C131.681 176.606 131.749 207.534 139.634 215.938C127.621 215.938 127.789 212.711 114.501 212.644C122.89 204.374 120.205 173.311 120.105 162.016C120.004 149.947 123.024 122.448 114.501 113.069C120.34 113.069 133.393 110.649 139.299 110.75C169.163 111.288 175.069 141.106 149.499 162.554C164.7 177.211 157.486 193.852 167.116 212.677C174.23 226.595 183.055 236.478 191.712 240.479L193.826 240.983V241.05ZM133.024 155.931C154.197 159.327 160.808 123.255 139.231 117.977C135.641 117.103 132.051 120.129 132.285 123.86C133.024 135.122 132.688 144.232 131.883 154.788L133.024 155.931Z" fill="white"/>
<path d="M277.178 156.335C277.883 152.503 283.185 150.721 285.366 153.377C287.749 156.268 286.373 163.832 278.923 161.68C269.192 158.856 271.273 144.468 270.467 139.022C267.749 120.936 237.415 116.364 244.328 135.694C249.092 148.973 271.843 165.311 280.064 177.615C289.191 191.23 291.44 213.753 262.045 214.627C222.953 215.77 252.213 183.868 239.261 177.514C239.059 181.111 236.677 182.657 234.06 182.725C230.536 182.792 226.61 180.069 227.416 175.867C229.093 166.992 239.932 166.454 243.69 176.169C247.18 185.111 248.22 198.357 252.884 202.189C257.481 205.954 268.051 205.383 271.709 197.953C276.742 187.633 250.267 166.588 243.858 158.991C218.926 129.407 240.1 105.909 260.77 111.691C274.058 115.423 280.635 132.971 277.413 146.418C276.474 150.418 275.836 154.251 277.111 156.369" fill="white"/>
</g>
<defs>
<clipPath id="clip0_947_15406">
<rect width="312" height="146" fill="white" transform="translate(59 97)"/>
</clipPath>
</defs>
</svg>
