<svg width="1037" height="128" viewBox="0 0 1037 128" fill="none" xmlns="http://www.w3.org/2000/svg">
<path d="M1.65918 44.0923C22.885 44.0923 44.1109 44.0923 189.602 44.0923C335.094 44.0923 604.208 44.0923 742.843 46.3665C881.477 48.6407 881.477 53.1891 884.13 55.9113C914.811 87.3893 992.477 57.8984 997.071 50.6622C999.859 46.2706 998.633 38.1196 997.496 33.0773C993.868 16.9889 971.159 8.89957 952.782 3.52425C933.805 -2.0262 915.981 6.53356 907.952 13.7926C901.512 19.6153 899.096 27.9661 897.948 37.89C895.103 62.4713 915.108 80.8012 928.133 96.1003C940.877 111.07 955.676 116.04 969.482 119.888C986.343 122.954 1000.1 124.493 1016.17 126.4C1021.54 126.791 1028.36 126.791 1035.39 126.791" stroke="black" stroke-width="2" stroke-linecap="round"/>
</svg>
