<svg width="430" height="340" viewBox="0 0 430 340" fill="none" xmlns="http://www.w3.org/2000/svg">
<mask id="mask0_873_17195" style="mask-type:alpha" maskUnits="userSpaceOnUse" x="0" y="0" width="430" height="340">
<rect width="430" height="340" fill="#D9D9D9"/>
</mask>
<g mask="url(#mask0_873_17195)">
</g>
<g clip-path="url(#clip0_873_17195)">
<path d="M124.541 148.366C125.371 147.264 126.581 146.747 128.138 146.747C129.625 146.747 130.905 147.195 131.942 148.125C132.98 149.055 133.533 150.227 133.533 151.708C133.533 152.328 133.464 152.845 133.326 153.258C133.187 153.671 133.049 154.05 132.876 154.291C132.772 154.533 132.703 154.774 132.599 154.946C132.496 155.118 132.426 155.29 132.323 155.463C132.323 155.566 132.323 155.669 132.254 155.807C132.184 155.945 132.184 156.083 132.184 156.255C132.184 157.633 132.842 158.839 134.156 159.838C135.47 160.837 137.614 161.319 140.589 161.319C148.716 161.319 155.772 158.287 161.755 152.259C167.739 146.196 172.892 139.513 177.146 132.211C179.083 129.076 180.812 125.975 182.403 122.944C183.96 119.878 185.447 117.122 186.865 114.573C187.833 112.748 188.905 110.887 190.081 109.027C191.257 107.167 192.502 105.272 193.817 103.343C197.241 98.3829 201.08 93.5947 205.403 88.9787C209.726 84.3627 214.222 80.5735 218.857 77.611C217.543 76.9909 216.194 76.4742 214.776 75.9919C213.392 75.5097 211.974 75.0963 210.591 74.7518C208.239 74.1318 205.887 73.7184 203.57 73.5117C201.253 73.305 199.039 73.1672 196.964 73.1672C193.886 73.1672 191.084 73.2706 188.525 73.4428C185.966 73.6151 183.372 73.994 180.847 74.614C182.853 76.8876 184.236 79.3678 184.963 82.1236C185.689 84.8794 186.069 87.6697 186.069 90.5289C186.069 91.4934 186.035 92.4579 185.931 93.388C185.827 94.3525 185.723 95.3171 185.551 96.2472C183.89 104.859 179.36 112.748 171.924 119.947C164.488 127.147 156.325 130.729 147.402 130.729C143.563 130.729 140.208 129.524 137.303 127.147C134.398 124.77 132.98 121.153 132.98 116.365C132.98 109.062 136.023 102.103 142.145 95.4893C148.267 88.8754 155.046 83.5704 162.447 79.5745C165.076 78.1966 167.67 76.9909 170.264 75.9919C172.823 74.993 175.279 74.2696 177.527 73.8217C176.143 72.7883 174.552 71.9616 172.823 71.3415C171.059 70.7215 169.33 70.2392 167.6 69.8947C166.632 69.8258 165.733 69.7225 164.834 69.6191C163.969 69.5502 163.07 69.4813 162.205 69.4813C157.121 69.4813 152.279 70.5148 147.644 72.5472C143.01 74.5796 138.825 77.4732 135.055 81.228C130.248 86.0162 127.135 90.3222 125.682 94.1459C124.23 97.9695 123.261 99.8986 122.742 99.8986C122.639 99.8986 122.569 99.8642 122.5 99.7608C122.397 99.6575 122.362 99.5886 122.362 99.4852C122.258 99.4852 122.224 99.4163 122.224 99.2097C122.224 98.4174 122.881 96.5227 124.264 93.4569C125.613 90.4255 127.723 87.153 130.628 83.6738C133.948 79.7467 138.237 76.1642 143.459 72.8228C148.716 69.5158 155.046 67.8623 162.482 67.8623H163.485C163.796 67.8623 164.073 67.8968 164.349 68.0001C167.393 68.1723 170.333 68.7924 173.134 69.8258C175.936 70.8592 178.08 72.0305 179.567 73.3395C181.227 72.8917 183.095 72.5472 185.205 72.3061C187.314 72.0305 189.39 71.8238 191.499 71.6515C192.468 71.6515 193.402 71.6515 194.335 71.5827C195.235 71.5482 196.134 71.5138 197.033 71.5138C201.668 71.5138 206.06 71.9271 210.28 72.7539C214.464 73.5806 218.027 74.6829 220.897 76.0953C221.174 75.9231 221.416 75.7853 221.624 75.6475C221.831 75.5097 222.073 75.3719 222.35 75.1997C223.837 74.3385 225.151 73.5117 226.293 72.7194C227.434 71.9271 228.299 71.5482 228.921 71.5482C229.094 71.5482 229.233 71.6171 229.302 71.7549C229.371 71.8927 229.44 72.0305 229.44 72.2027C229.44 72.6505 228.748 73.2361 227.33 73.9595C225.947 74.7174 224.356 75.6819 222.627 76.8876C226.742 79.0578 230.063 82.0547 232.657 85.8784C235.251 89.7021 236.53 94.077 236.53 98.9341C236.53 104.687 234.248 109.682 229.717 113.953C225.151 118.225 220.137 120.912 214.637 122.048C213.773 122.221 212.908 122.358 212.078 122.427C211.248 122.531 210.452 122.565 209.657 122.565C209.311 122.565 208.965 122.565 208.619 122.496C208.274 122.427 207.962 122.393 207.72 122.29C206.579 122.117 205.507 121.807 204.504 121.359C203.501 120.912 202.601 120.498 201.806 120.05C200.941 119.534 200.25 119.052 199.765 118.604C199.281 118.156 199.039 117.88 199.039 117.708C199.039 117.536 199.108 117.364 199.247 117.26C199.385 117.122 199.592 117.054 199.835 117.054C200.007 117.054 200.319 117.226 200.734 117.57C201.183 117.915 201.737 118.294 202.428 118.741C203.12 119.189 203.95 119.568 204.85 119.913C205.749 120.257 206.786 120.429 207.928 120.429C213.358 120.429 217.888 118.294 221.555 114.022C225.221 109.751 227.642 105.1 228.748 100.071C228.921 99.0374 229.094 98.004 229.198 97.005C229.336 96.006 229.406 95.0415 229.406 94.077C229.406 90.77 228.679 87.7386 227.227 85.0172C225.774 82.2614 223.595 80.0912 220.621 78.4377C217.992 80.2635 215.537 82.5714 213.288 85.3617C211.006 88.152 208.792 91.3212 206.613 94.9037C204.089 99.0719 201.46 103.653 198.832 108.614C196.168 113.574 193.263 118.741 190.116 124.15C184.271 134.346 176.8 143.303 167.704 151.053C158.608 158.804 148.993 162.662 138.859 162.662C134.848 162.662 131.251 161.835 128.103 160.182C124.956 158.529 123.4 155.842 123.4 152.087C123.4 150.606 123.815 149.331 124.645 148.229M137.753 125.183C139.793 127.457 142.526 128.594 145.95 128.594C146.745 128.594 147.541 128.559 148.371 128.456C149.201 128.352 149.996 128.18 150.792 127.939C157.086 126.458 163.035 122.703 168.638 116.709C174.241 110.715 178.149 104.273 180.432 97.3839C181.054 95.6271 181.504 93.8703 181.815 92.079C182.127 90.2877 182.265 88.5653 182.265 86.9119C182.265 84.5694 182.092 82.3303 181.746 80.2635C181.4 78.1622 180.536 76.4053 179.118 74.9241C178.495 75.0274 177.872 75.1308 177.215 75.303C176.558 75.4752 175.936 75.6475 175.313 75.8197C167.358 78.0933 159.819 82.0203 152.694 87.6353C145.569 93.2502 140.485 99.1408 137.407 105.307C136.542 107.133 135.851 108.924 135.366 110.646C134.882 112.403 134.64 114.091 134.64 115.745C134.64 119.74 135.678 122.875 137.718 125.149" fill="white"/>
<path d="M252.751 137.791C252.543 138.79 252.197 139.824 251.782 140.857C251.091 142.855 250.157 144.75 249.015 146.541C247.874 148.332 246.664 149.882 245.349 151.191C245.522 151.295 245.73 151.329 245.937 151.398C246.145 151.432 246.456 151.467 246.802 151.467C249.085 151.467 251.264 150.881 253.373 149.71C255.483 148.539 257.351 146.989 259.011 145.06C259.806 144.198 260.325 143.613 260.602 143.372C260.844 143.131 261.086 142.924 261.259 142.855H261.397C261.674 142.855 261.847 142.924 261.916 143.062C261.985 143.199 262.054 143.337 262.054 143.509C262.054 143.613 261.881 143.888 261.536 144.371C261.19 144.853 260.221 145.886 258.665 147.436C257.005 149.09 255.068 150.433 252.82 151.467C250.606 152.5 248.22 153.051 245.661 153.051H244.623C244.381 153.051 244.139 153.017 243.966 152.914C243.862 153.017 243.828 153.086 243.758 153.12C243.724 153.155 243.655 153.224 243.551 153.327C241.545 155.497 239.193 157.53 236.53 159.39C233.867 161.284 230.719 162.215 227.157 162.215C224.529 162.215 222.523 161.147 221.139 159.011C219.721 156.875 219.029 154.085 219.029 150.606C219.029 149.4 219.064 148.401 219.168 147.678C219.237 146.954 219.341 146.3 219.444 145.783C219.444 145.266 219.479 144.853 219.583 144.543C219.652 144.233 219.721 143.992 219.721 143.819C219.721 143.544 219.721 143.372 219.652 143.234C219.617 143.096 219.514 143.027 219.306 143.027C219.064 143.027 218.787 143.131 218.511 143.372C218.234 143.578 218.026 143.819 217.853 144.095C217.681 144.371 217.508 144.612 217.335 144.818C217.162 145.025 217.023 145.163 216.954 145.163C216.781 145.163 216.608 145.094 216.435 144.956C216.263 144.818 216.193 144.681 216.193 144.508C216.193 144.233 216.678 143.578 217.646 142.545C218.614 141.511 219.687 140.375 220.932 139.135C221.001 139.066 221.105 138.928 221.208 138.79C221.277 138.652 221.416 138.549 221.589 138.446C221.935 138.101 222.315 137.722 222.696 137.343C223.076 136.964 223.456 136.585 223.802 136.241C224.425 135.621 225.013 135.104 225.635 134.622C226.258 134.14 226.846 133.657 227.468 133.106C230.685 130.66 233.867 128.869 236.98 127.698C240.092 126.527 242.859 125.941 245.315 125.941C247.77 125.941 249.776 126.802 251.16 128.49C252.509 130.178 253.2 132.348 253.2 134.966C253.2 135.931 253.097 136.896 252.889 137.895M249.292 129.283C248.6 128.111 247.424 127.526 245.764 127.526C244.9 127.526 243.966 127.664 243.032 127.974C242.064 128.284 241.095 128.731 240.161 129.351C237.533 130.936 235.008 133.244 232.622 136.344C230.235 139.445 228.264 142.683 226.777 146.059C226.085 147.781 225.497 149.503 225.082 151.157C224.632 152.81 224.425 154.36 224.425 155.842C224.425 157.667 224.771 158.942 225.462 159.631C226.154 160.32 226.95 160.664 227.814 160.664C228.506 160.664 229.198 160.595 229.924 160.458C230.616 160.32 231.273 160.148 231.895 159.872C235.562 158.666 239.02 156.152 242.237 152.363C245.453 148.573 247.77 144.543 249.188 140.306C249.534 139.1 249.811 137.929 250.053 136.792C250.261 135.655 250.399 134.519 250.399 133.382C250.399 131.832 250.053 130.454 249.361 129.283" fill="white"/>
<path d="M291.487 101.552L299.615 101.035L291.107 114.091H306.843C306.843 114.091 307.016 114.298 307.12 114.436C307.224 114.573 307.258 114.711 307.258 114.883C307.258 115.056 307.224 115.228 307.12 115.4C307.016 115.572 306.843 115.676 306.601 115.676H290.207C289.343 117.226 287.752 119.775 285.435 123.323C283.117 126.837 280.696 130.626 278.171 134.622C277.895 135.07 277.653 135.449 277.376 135.793C277.099 136.138 276.892 136.516 276.719 136.964C273.744 141.58 271.116 145.955 268.799 150.089C266.481 154.223 265.34 157.082 265.34 158.632C265.34 159.252 265.548 159.734 265.928 160.079C266.308 160.423 266.966 160.595 267.83 160.595C269.836 160.595 272.015 159.803 274.332 158.184C276.65 156.565 279.278 154.291 282.253 151.329C285.573 148.022 287.683 145.748 288.547 144.543C289.412 143.337 290.034 142.717 290.38 142.717C290.657 142.717 290.83 142.786 290.899 142.924C291.003 143.062 291.037 143.234 291.037 143.509C291.037 143.682 290.622 144.233 289.792 145.197C288.962 146.162 288.028 147.264 286.956 148.47C286.783 148.573 286.61 148.676 286.507 148.814C286.368 148.952 286.265 149.09 286.195 149.262C285.746 149.71 285.365 150.089 285.019 150.433C284.674 150.778 284.328 151.122 283.982 151.467C279.97 155.463 276.684 158.253 274.159 159.838C271.635 161.422 269.421 162.18 267.588 162.18C265.478 162.077 263.991 161.457 263.057 160.285C262.158 159.114 261.605 157.84 261.432 156.427V155.773C261.432 155.084 261.466 154.395 261.57 153.671C261.639 152.982 261.743 152.328 261.847 151.708C262.539 148.745 263.887 145.645 265.928 142.441C267.934 139.238 270.528 135.38 273.675 130.936L273.399 130.66C273.053 131.005 272.741 131.349 272.499 131.694C272.223 132.038 271.946 132.383 271.6 132.727C271.496 132.831 271.427 132.899 271.323 133.003C271.22 133.072 271.185 133.209 271.185 133.382C270.32 134.243 269.421 135.207 268.557 136.172C267.692 137.171 266.62 138.377 265.409 139.755C265.133 140.03 264.821 140.375 264.441 140.857C264.06 141.339 263.645 141.821 263.196 142.373C263.092 142.373 263.057 142.407 263.057 142.51C262.435 143.199 261.847 143.854 261.294 144.474C260.74 145.094 260.394 145.404 260.325 145.404C260.152 145.404 260.014 145.37 259.875 145.266C259.737 145.163 259.668 145.059 259.668 144.887C259.668 144.612 259.979 144.129 260.567 143.44C261.19 142.751 262.746 140.96 265.305 138.101C266.62 136.62 268.314 134.656 270.424 132.211C272.534 129.765 274.713 127.112 276.996 124.253C277.687 123.289 278.379 122.358 279.105 121.463C279.797 120.533 280.489 119.603 281.215 118.638C281.561 118.121 281.907 117.605 282.253 117.122C282.598 116.64 282.944 116.158 283.29 115.641H278.586C278.31 115.641 278.137 115.538 278.068 115.366C277.999 115.193 277.929 115.021 277.929 114.849C277.929 114.746 277.929 114.642 277.999 114.504C278.033 114.367 278.102 114.263 278.206 114.194C278.275 114.194 278.379 114.16 278.483 114.057H283.982L291.729 101.518L291.487 101.552Z" fill="white"/>
<path d="M61.2831 256.601C62.1131 255.499 63.3237 254.982 64.88 254.982C66.3672 254.982 67.6469 255.43 68.6845 256.36C69.7221 257.29 70.2754 258.461 70.2754 259.942C70.2754 260.563 70.2063 261.079 70.0679 261.493C69.9296 261.906 69.7912 262.285 69.6183 262.526C69.5145 262.802 69.4454 263.008 69.3416 263.181C69.2379 263.353 69.1687 263.525 69.0649 263.697C69.0649 263.801 69.0649 263.904 68.9958 264.007C68.9612 264.145 68.9266 264.283 68.9266 264.455C68.9266 265.833 69.5837 267.039 70.898 268.038C72.2122 269.037 74.3566 269.553 77.331 269.553C85.4587 269.553 92.5142 266.522 98.4976 260.494C104.481 254.431 109.634 247.782 113.888 240.445C115.825 237.31 117.554 234.21 119.145 231.179C120.702 228.147 122.189 225.357 123.607 222.808C124.575 220.982 125.648 219.122 126.823 217.262C127.999 215.402 129.245 213.507 130.559 211.578C133.983 206.618 137.822 201.829 142.145 197.213C146.468 192.597 150.964 188.808 155.599 185.846C154.285 185.226 152.936 184.709 151.518 184.227C150.1 183.744 148.716 183.331 147.333 182.986C144.981 182.366 142.629 181.953 140.312 181.746C137.995 181.54 135.781 181.402 133.706 181.402C130.628 181.402 127.826 181.505 125.267 181.677C122.673 181.85 120.114 182.229 117.589 182.849C119.595 185.122 120.978 187.602 121.705 190.358C122.431 193.08 122.812 195.904 122.812 198.763C122.812 199.728 122.777 200.693 122.673 201.623C122.569 202.587 122.466 203.552 122.293 204.482C120.633 213.094 116.102 220.982 108.666 228.182C101.23 235.347 93.0676 238.964 84.1444 238.964C80.3054 238.964 76.9505 237.758 74.0453 235.381C71.1401 233.004 69.7221 229.387 69.7221 224.599C69.7221 217.296 72.7656 210.338 78.8873 203.724C85.0091 197.11 91.7879 191.805 99.1893 187.809C101.818 186.431 104.412 185.226 107.006 184.227C109.6 183.228 112.021 182.504 114.269 182.056C112.885 181.023 111.294 180.196 109.565 179.576C107.801 178.956 106.072 178.474 104.343 178.129C103.374 178.026 102.475 177.957 101.576 177.854C100.711 177.785 99.8118 177.716 98.9472 177.716C93.8631 177.716 89.021 178.749 84.3865 180.782C79.752 182.814 75.5671 185.708 71.7972 189.463C66.9898 194.251 63.877 198.557 62.4244 202.38C60.9718 206.204 60.0034 208.133 59.4846 208.133C59.3809 208.133 59.3117 208.099 59.2425 207.995C59.1388 207.892 59.1042 207.823 59.1042 207.72C59.0004 207.72 58.9658 207.651 58.9658 207.479C58.9658 206.686 59.623 204.792 61.0064 201.726C62.3552 198.695 64.465 195.422 67.3702 191.943C70.6905 188.016 74.9791 184.433 80.2016 181.092C85.4587 177.785 91.7879 176.131 99.2239 176.131H100.227C100.538 176.131 100.815 176.166 101.092 176.269C104.135 176.441 107.075 177.061 109.876 178.095C112.678 179.128 114.822 180.3 116.309 181.609C117.969 181.161 119.837 180.816 121.947 180.575C124.057 180.3 126.132 180.093 128.242 179.921C129.21 179.921 130.144 179.921 131.078 179.852C131.977 179.817 132.876 179.783 133.775 179.783C138.41 179.783 142.802 180.196 147.022 181.023C151.207 181.85 154.769 182.952 157.64 184.364C157.916 184.192 158.124 184.054 158.366 183.917C158.573 183.779 158.816 183.641 159.092 183.469C160.579 182.608 161.894 181.781 163.035 180.988C164.176 180.196 165.041 179.817 165.664 179.817C165.836 179.817 165.975 179.886 166.044 180.024C166.148 180.162 166.182 180.3 166.182 180.472C166.182 180.92 165.491 181.505 164.073 182.229C162.689 182.952 161.098 183.951 159.369 185.157C163.485 187.327 166.805 190.324 169.399 194.147C171.958 197.971 173.272 202.346 173.272 207.203C173.272 212.956 170.99 217.951 166.459 222.222C161.928 226.494 156.879 229.181 151.38 230.318C150.515 230.49 149.65 230.628 148.82 230.696C147.99 230.8 147.195 230.834 146.399 230.834C146.053 230.834 145.707 230.834 145.362 230.765C145.016 230.696 144.704 230.662 144.462 230.559C143.321 230.386 142.249 230.076 141.246 229.629C140.243 229.181 139.344 228.767 138.548 228.32C137.683 227.803 136.992 227.321 136.508 226.873C136.023 226.425 135.781 226.149 135.781 225.977C135.781 225.805 135.85 225.633 135.989 225.529C136.127 225.426 136.335 225.323 136.577 225.323C136.75 225.323 137.061 225.495 137.476 225.839C137.926 226.184 138.479 226.597 139.171 227.011C139.862 227.458 140.692 227.837 141.592 228.182C142.491 228.526 143.529 228.698 144.67 228.698C150.1 228.698 154.631 226.563 158.297 222.291C161.963 218.02 164.384 213.369 165.491 208.34C165.664 207.306 165.836 206.273 165.94 205.274C166.079 204.275 166.148 203.311 166.148 202.346C166.148 199.039 165.421 196.008 163.969 193.286C162.516 190.53 160.303 188.36 157.363 186.707C154.734 188.533 152.279 190.841 150.031 193.631C147.748 196.421 145.534 199.59 143.356 203.173C140.831 207.341 138.202 211.922 135.574 216.883C132.911 221.843 130.005 227.011 126.858 232.419C121.013 242.615 113.542 251.572 104.446 259.322C95.3503 267.073 85.7354 270.931 75.6017 270.931C71.5897 270.931 67.9928 270.105 64.8454 268.451C61.6981 266.798 60.1417 264.111 60.1417 260.356C60.1417 258.875 60.5568 257.6 61.3868 256.498M74.4949 233.452C76.5355 235.726 79.2678 236.863 82.6918 236.863C83.4873 236.863 84.2827 236.828 85.1128 236.725C85.9429 236.621 86.7384 236.449 87.5338 236.208C93.8285 234.727 99.7773 230.972 105.346 224.978C110.949 218.984 114.857 212.543 117.139 205.653C117.762 203.931 118.212 202.139 118.523 200.382C118.834 198.591 118.972 196.869 118.972 195.215C118.972 192.873 118.8 190.668 118.454 188.567C118.108 186.466 117.243 184.709 115.825 183.228C115.203 183.331 114.58 183.434 113.923 183.606C113.266 183.779 112.643 183.951 112.021 184.123C104.066 186.397 96.5262 190.324 89.4015 195.939C82.2768 201.554 77.1926 207.444 74.1145 213.645C73.2498 215.471 72.5581 217.262 72.0739 218.984C71.5897 220.707 71.3476 222.429 71.3476 224.082C71.3476 228.078 72.3852 231.213 74.4257 233.487" fill="white"/>
<path d="M189.493 246.026C189.286 247.025 188.94 248.058 188.525 249.091C187.833 251.089 186.899 252.984 185.758 254.775C184.617 256.567 183.406 258.117 182.092 259.391C182.265 259.495 182.472 259.563 182.68 259.598C182.887 259.632 183.199 259.667 183.544 259.667C185.827 259.667 188.006 259.081 190.081 257.91C192.191 256.739 194.058 255.189 195.719 253.26C196.514 252.398 197.033 251.813 197.275 251.572C197.552 251.296 197.759 251.124 197.932 251.055H198.07C198.347 251.055 198.52 251.124 198.589 251.262C198.658 251.399 198.728 251.537 198.728 251.709C198.728 251.813 198.555 252.088 198.209 252.571C197.863 253.053 196.895 254.086 195.338 255.636C193.678 257.29 191.741 258.633 189.493 259.667C187.28 260.7 184.893 261.251 182.334 261.251H181.296C181.054 261.251 180.812 261.217 180.639 261.114C180.535 261.217 180.501 261.286 180.432 261.32C180.397 261.355 180.328 261.424 180.224 261.527C178.218 263.697 175.866 265.73 173.203 267.59C170.54 269.45 167.393 270.414 163.83 270.414C161.202 270.414 159.196 269.347 157.812 267.211C156.429 265.075 155.703 262.285 155.703 258.806C155.703 257.6 155.737 256.601 155.841 255.878C155.945 255.154 156.014 254.5 156.118 253.983C156.118 253.466 156.152 253.053 156.256 252.743C156.36 252.433 156.394 252.192 156.394 252.019C156.394 251.744 156.394 251.572 156.325 251.434C156.291 251.296 156.187 251.227 155.979 251.227C155.703 251.227 155.461 251.33 155.184 251.537C154.907 251.744 154.7 251.985 154.527 252.261C154.354 252.536 154.181 252.777 154.008 252.984C153.835 253.191 153.697 253.328 153.628 253.328C153.455 253.328 153.282 253.26 153.109 253.122C152.936 252.984 152.832 252.846 152.832 252.674C152.832 252.398 153.316 251.744 154.285 250.71C155.253 249.677 156.325 248.54 157.57 247.3C157.674 247.231 157.743 247.093 157.847 246.956C157.951 246.818 158.055 246.715 158.227 246.646C158.573 246.301 158.954 245.922 159.334 245.543C159.715 245.164 160.095 244.785 160.441 244.441C161.063 243.821 161.651 243.304 162.274 242.822C162.897 242.34 163.485 241.857 164.107 241.306C167.324 238.86 170.505 237.069 173.618 235.898C176.731 234.727 179.498 234.141 181.953 234.141C184.409 234.141 186.415 235.002 187.798 236.69C189.147 238.378 189.839 240.548 189.839 243.166C189.839 244.131 189.735 245.095 189.493 246.094M185.896 237.483C185.204 236.311 184.029 235.726 182.368 235.726C181.504 235.726 180.57 235.863 179.636 236.174C178.668 236.484 177.699 236.931 176.766 237.551C174.137 239.136 171.612 241.444 169.226 244.544C166.839 247.645 164.868 250.883 163.381 254.259C162.689 256.015 162.101 257.703 161.686 259.357C161.271 261.01 161.029 262.56 161.029 264.042C161.029 265.867 161.375 267.142 162.066 267.831C162.758 268.52 163.554 268.864 164.418 268.864C165.11 268.864 165.802 268.795 166.528 268.658C167.22 268.52 167.877 268.348 168.499 268.072C172.166 266.866 175.624 264.352 178.841 260.562C182.057 256.773 184.374 252.743 185.792 248.471C186.138 247.266 186.415 246.094 186.657 244.958C186.899 243.821 187.003 242.684 187.003 241.547C187.003 239.997 186.657 238.619 185.965 237.448" fill="white"/>
<path d="M221.692 234.072C214.602 245.302 209.795 252.708 207.201 256.325C204.607 259.942 203.154 262.801 202.808 264.868C202.808 265.144 202.808 265.385 202.739 265.661C202.705 265.936 202.67 266.246 202.67 266.591C202.67 267.28 202.878 267.796 203.258 268.141C203.639 268.485 204.123 268.692 204.642 268.795H204.918C206.751 268.795 209.207 267.521 212.25 265.006C215.294 262.491 218.545 259.357 221.969 255.602C223.353 253.948 224.805 252.26 226.223 250.504C227.676 248.781 229.059 246.99 230.339 245.164C231.653 243.339 232.898 241.513 234.143 239.756C235.354 237.965 236.461 236.242 237.429 234.589L245.937 234.072C245.142 235.381 243.862 237.31 242.064 239.894C240.265 242.443 238.363 245.164 236.357 248.058C236.08 248.402 235.838 248.747 235.561 249.091C235.285 249.436 235.043 249.849 234.766 250.263C232.483 253.569 230.477 256.739 228.679 259.805C226.88 262.836 225.981 265.109 225.981 266.591C225.981 267.28 226.154 267.831 226.5 268.21C226.846 268.589 227.434 268.795 228.195 268.795C229.163 268.795 230.685 268.106 232.795 266.694C234.904 265.316 237.464 263.008 240.542 259.77C244.208 256.119 246.456 253.776 247.286 252.708C248.116 251.675 248.669 251.089 248.912 251.02H249.05C249.223 251.02 249.361 251.089 249.5 251.227C249.638 251.365 249.707 251.503 249.707 251.675C249.707 251.847 249.257 252.467 248.324 253.501C247.424 254.534 246.352 255.705 245.107 257.014C245.003 257.118 244.969 257.152 244.9 257.221C244.865 257.255 244.83 257.324 244.83 257.428C244.312 257.944 243.793 258.461 243.309 258.978C242.824 259.494 242.375 259.977 241.925 260.425C238.501 263.835 235.7 266.315 233.452 267.934C231.238 269.553 229.232 270.346 227.503 270.346C225.774 270.346 224.632 269.794 223.837 268.658C223.041 267.521 222.522 266.315 222.246 265.006C222.177 264.489 222.107 263.973 222.038 263.422C222.004 262.905 221.969 262.423 221.969 261.975C221.969 261.01 222.038 260.115 222.246 259.288C222.419 258.461 222.626 257.703 222.903 257.014L222.626 256.739C221.935 257.428 221.104 258.289 220.136 259.357C219.168 260.39 218.13 261.492 216.989 262.629C216.124 263.594 215.156 264.489 214.118 265.385C213.081 266.246 212.008 267.073 210.971 267.865C209.933 268.554 208.861 269.14 207.754 269.622C206.648 270.104 205.645 270.346 204.676 270.346C202.566 270.346 201.045 269.657 200.076 268.244C199.108 266.866 198.624 265.213 198.624 263.284C198.624 259.805 199.523 256.566 201.321 253.638C203.12 250.676 205.057 247.886 207.166 245.268C208.031 244.131 208.896 243.029 209.795 241.926C210.659 240.858 211.455 239.79 212.147 238.723L211.87 238.447C210.832 239.239 209.726 240.204 208.515 241.306C207.339 242.443 206.163 243.614 205.022 244.82C204.572 245.164 204.192 245.543 203.846 245.922C203.5 246.301 203.154 246.68 202.808 247.024C202.29 247.645 201.771 248.196 201.287 248.712C200.802 249.229 200.318 249.746 199.765 250.263C199.142 251.055 198.727 251.606 198.451 251.882C198.174 252.192 197.966 252.398 197.794 252.467H197.517C197.344 252.467 197.206 252.398 197.136 252.26C197.067 252.123 196.998 251.95 196.998 251.675C196.998 251.503 197.378 251.02 198.105 250.159C198.831 249.332 200.699 247.369 203.673 244.234C204.987 242.856 206.509 241.306 208.273 239.653C210.037 237.999 211.974 236.242 214.187 234.451L221.52 233.934L221.692 234.072Z" fill="white"/>
<path d="M250.503 270.346C257.143 259.736 262.158 252.019 265.582 247.231C269.006 242.443 270.701 239.17 270.701 237.448C270.701 236.931 270.493 236.484 270.113 236.139C269.732 235.795 269.179 235.622 268.487 235.622C267.623 235.622 266.343 236.07 264.683 237C263.023 237.896 260.878 239.722 258.25 242.409C254.238 246.508 251.678 249.264 250.572 250.71C249.465 252.157 248.808 252.881 248.531 252.881C248.358 252.881 248.22 252.812 248.082 252.674C247.943 252.536 247.874 252.398 247.874 252.226C247.874 251.985 248.462 251.193 249.638 249.884C250.814 248.575 252.094 247.128 253.512 245.578C253.857 245.233 254.203 244.854 254.549 244.407C254.895 243.959 255.241 243.58 255.587 243.235C258.388 240.204 260.844 237.896 262.988 236.38C265.132 234.865 267.104 234.107 268.937 234.107C270.597 234.107 271.877 234.727 272.741 236.001C273.606 237.276 274.056 238.688 274.056 240.238C274.056 241.272 273.848 242.443 273.398 243.752C272.949 245.061 272.43 246.404 271.808 247.782C271.462 248.575 271.081 249.367 270.632 250.194C270.182 251.02 269.732 251.813 269.179 252.605C268.556 253.639 267.968 254.637 267.346 255.533C266.723 256.429 266.205 257.221 265.79 257.807L266.032 258.082C269.525 253.983 272.672 250.745 275.474 248.368C278.275 245.991 279.97 243.89 280.592 242.167C280.696 241.995 280.765 241.789 280.869 241.582C280.938 241.375 281.042 241.168 281.111 240.996C281.803 239.239 282.84 237.655 284.189 236.242C285.538 234.796 287.233 234.107 289.239 234.107C290.38 234.107 291.21 234.279 291.729 234.623C292.248 234.968 292.524 235.485 292.524 236.174C292.524 236.621 292.386 237.069 292.144 237.551C291.867 238.034 291.591 238.482 291.245 238.929C290.553 239.722 289.654 240.479 288.547 241.272C287.44 242.064 286.334 242.891 285.192 243.752C283.255 245.061 281.526 246.542 280.004 248.265C278.483 249.987 277.722 251.951 277.722 254.19C277.722 255.499 278.171 256.567 279.036 257.393C279.901 258.22 280.904 258.633 282.045 258.633C283.083 258.633 284.12 258.427 285.123 257.979C286.126 257.531 287.06 256.877 287.959 256.015C289.446 254.534 290.519 253.328 291.176 252.433C291.833 251.503 292.282 251.055 292.559 251.055C292.732 251.055 292.905 251.124 293.078 251.262C293.251 251.399 293.355 251.537 293.355 251.709C293.355 251.882 293.147 252.226 292.697 252.674C292.248 253.156 291.764 253.707 291.245 254.293C291.072 254.569 290.864 254.81 290.588 255.085C290.311 255.361 290.103 255.602 289.931 255.878C289.412 256.498 288.893 257.014 288.374 257.428C287.855 257.876 287.267 258.254 286.679 258.599C285.884 259.047 285.089 259.357 284.328 259.564C283.532 259.77 282.737 259.908 281.976 259.908C280.592 259.908 279.278 259.46 278.033 258.53C276.788 257.634 276.2 256.394 276.2 254.81C276.2 253.328 276.407 251.985 276.857 250.814C277.307 249.643 277.964 248.54 278.828 247.472L278.552 247.197C276.615 249.023 274.713 250.917 272.845 252.881C270.977 254.844 269.075 256.945 267.138 259.219C265.755 260.804 264.337 262.457 262.954 264.179C261.57 265.902 260.152 267.693 258.769 269.519L250.503 270.311V270.346Z" fill="white"/>
<path d="M294.15 270.346C300.791 259.736 305.805 252.019 309.229 247.231C312.653 242.443 314.348 239.17 314.348 237.448C314.348 236.931 314.141 236.484 313.76 236.139C313.38 235.795 312.826 235.622 312.135 235.622C311.27 235.622 309.99 236.07 308.33 237C306.67 237.896 304.526 239.722 301.897 242.409C297.885 246.508 295.326 249.264 294.219 250.71C293.112 252.157 292.455 252.881 292.179 252.881C292.006 252.881 291.867 252.812 291.729 252.674C291.591 252.536 291.521 252.398 291.521 252.226C291.521 251.985 292.109 251.193 293.285 249.884C294.461 248.575 295.741 247.128 297.159 245.578C297.505 245.233 297.851 244.854 298.197 244.407C298.542 243.959 298.888 243.58 299.234 243.235C302.036 240.204 304.491 237.896 306.636 236.38C308.78 234.865 310.751 234.107 312.584 234.107C314.244 234.107 315.524 234.727 316.389 236.001C317.253 237.276 317.703 238.688 317.703 240.238C317.703 241.272 317.496 242.443 317.046 243.752C316.596 245.061 316.078 246.404 315.455 247.782C315.109 248.575 314.729 249.367 314.279 250.194C313.829 251.02 313.38 251.813 312.826 252.605C312.204 253.639 311.616 254.637 310.993 255.533C310.371 256.429 309.852 257.221 309.437 257.807L309.679 258.082C313.172 253.983 316.32 250.745 319.121 248.368C321.923 245.991 323.617 243.89 324.24 242.167C324.344 241.995 324.413 241.789 324.516 241.582C324.586 241.375 324.689 241.168 324.759 240.996C325.45 239.239 326.488 237.655 327.837 236.242C329.186 234.796 330.88 234.107 332.886 234.107C334.028 234.107 334.858 234.279 335.376 234.623C335.895 234.968 336.172 235.485 336.172 236.174C336.172 236.621 336.034 237.069 335.791 237.551C335.515 238.034 335.238 238.482 334.892 238.929C334.201 239.722 333.301 240.479 332.195 241.272C331.088 242.064 329.981 242.891 328.84 243.752C326.903 245.061 325.174 246.542 323.652 248.265C322.13 249.987 321.369 251.951 321.369 254.19C321.369 255.499 321.819 256.567 322.683 257.393C323.548 258.22 324.551 258.633 325.692 258.633C326.73 258.633 327.768 258.427 328.771 257.979C329.774 257.531 330.707 256.877 331.607 256.015C333.094 254.534 334.166 253.328 334.823 252.433C335.48 251.503 335.93 251.055 336.207 251.055C336.379 251.055 336.552 251.124 336.725 251.262C336.898 251.399 337.002 251.537 337.002 251.709C337.002 251.882 336.794 252.226 336.345 252.674C335.895 253.156 335.411 253.707 334.892 254.293C334.719 254.569 334.512 254.81 334.235 255.085C333.958 255.361 333.751 255.602 333.578 255.878C333.059 256.498 332.54 257.014 332.022 257.428C331.503 257.876 330.915 258.254 330.327 258.599C329.531 259.047 328.736 259.357 327.975 259.564C327.18 259.77 326.384 259.908 325.623 259.908C324.24 259.908 322.926 259.46 321.68 258.53C320.435 257.634 319.847 256.394 319.847 254.81C319.847 253.328 320.055 251.985 320.505 250.814C320.954 249.643 321.611 248.54 322.476 247.472L322.199 247.197C320.262 249.023 318.36 250.917 316.493 252.881C314.625 254.844 312.723 256.945 310.786 259.219C309.402 260.804 307.984 262.457 306.601 264.179C305.217 265.902 303.799 267.693 302.416 269.519L294.15 270.311V270.346Z" fill="white"/>
<path d="M358.792 234.072C350.941 246.956 345.926 255.154 343.781 258.668C341.637 262.181 340.565 264.662 340.565 266.04C340.565 267.073 340.772 267.796 341.222 268.141C341.672 268.485 342.19 268.692 342.813 268.795H343.09C344.127 268.795 345.303 268.485 346.617 267.831C347.932 267.176 349.246 266.384 350.56 265.42C351.529 264.731 352.428 264.007 353.327 263.249C354.192 262.526 355.022 261.734 355.817 260.976C356.163 260.631 356.474 260.287 356.786 260.011C357.097 259.701 357.374 259.426 357.65 259.15C357.996 258.806 358.342 258.461 358.653 258.186C358.965 257.875 359.276 257.565 359.622 257.221C359.691 257.049 359.829 256.911 359.933 256.773C360.071 256.635 360.21 256.498 360.383 256.325C361.697 254.844 362.873 253.535 363.91 252.329C364.948 251.158 365.536 250.573 365.605 250.573C365.778 250.573 365.951 250.607 366.124 250.71C366.297 250.814 366.401 250.986 366.401 251.227C366.401 251.399 365.778 252.261 364.498 253.776C363.219 255.292 361.213 257.497 358.411 260.356C355.16 263.663 352.255 266.177 349.626 267.865C346.998 269.553 344.784 270.414 342.951 270.414C340.945 270.414 339.389 269.76 338.282 268.451C337.175 267.142 336.657 265.523 336.657 263.628V262.905C336.657 262.698 336.691 262.457 336.795 262.181C337.072 259.391 337.936 256.635 339.424 253.88C340.911 251.124 342.571 248.506 344.404 245.991C345.199 244.785 345.995 243.614 346.825 242.546C347.655 241.444 348.416 240.411 349.108 239.343L348.865 239.067C348.07 239.859 346.825 241.168 345.061 242.994C343.297 244.82 340.876 247.507 337.729 251.089C337.21 251.709 336.83 252.123 336.622 252.329C336.415 252.536 336.242 252.708 336.172 252.777H335.896C335.723 252.777 335.584 252.708 335.515 252.502C335.412 252.329 335.377 252.157 335.377 251.985C335.377 251.813 335.619 251.468 336.103 250.951C336.587 250.435 337.66 249.195 339.32 247.3C340.011 246.508 340.772 245.681 341.533 244.82C342.329 243.959 343.159 243.029 344.023 242.064C345.338 240.686 346.617 239.308 347.828 237.965C349.038 236.621 349.972 235.519 350.56 234.623L358.826 234.107L358.792 234.072ZM363.392 212.921C363.392 212.749 363.426 212.577 363.53 212.405C363.807 211.44 364.291 210.544 365.052 209.718C365.778 208.891 366.781 208.478 367.992 208.478C368.96 208.478 369.686 208.822 370.205 209.442C370.724 210.097 371 210.889 371 211.853V212.37C371 212.542 370.966 212.715 370.862 212.887C370.585 213.851 370.101 214.747 369.375 215.574C368.614 216.401 367.646 216.814 366.435 216.814C365.57 216.814 364.844 216.469 364.256 215.815C363.703 215.16 363.392 214.368 363.392 213.404V212.887V212.921Z" fill="white"/>
</g>
<defs>
<clipPath id="clip0_873_17195">
<rect width="312" height="203" fill="white" transform="translate(59 68)"/>
</clipPath>
</defs>
</svg>
