<svg width="430" height="340" viewBox="0 0 430 340" fill="none" xmlns="http://www.w3.org/2000/svg">
<mask id="mask0_947_15208" style="mask-type:alpha" maskUnits="userSpaceOnUse" x="0" y="0" width="430" height="340">
<rect width="430" height="340" fill="#D9D9D9"/>
</mask>
<g mask="url(#mask0_947_15208)">
</g>
<g clip-path="url(#clip0_947_15208)">
<path d="M166.101 106.601V107.112C174.217 109.254 179.854 115.376 179.854 131.429V147.856C179.854 152.107 181.043 154.488 182.808 154.488C184.201 154.488 185.389 153.468 186.612 151.597C186.815 151.223 187.223 151.971 187.019 152.345C185.559 154.964 183.454 156.597 180.567 156.597C174.896 156.597 171.229 150.577 171.229 141.292V123.232C171.229 112.825 168.988 108.064 163.521 108.064H156.661V153.808H162.977C163.249 153.808 163.385 153.944 163.385 154.42C163.385 154.896 163.249 155.032 162.977 155.032H141.992C141.72 155.032 141.584 154.896 141.584 154.42C141.584 153.944 141.72 153.808 141.992 153.808H148.036V64.2586H142.229C141.958 64.2586 141.822 64.1225 141.822 63.6464C141.822 63.1702 141.958 63.0342 142.229 63.0342H161.449C172.248 63.0342 178.971 71.1967 178.971 84.9708C178.971 95.9902 173.436 104.901 166.135 106.669M156.661 106.907H161.212C164.573 106.907 166.135 105.649 167.596 103.03C169.293 100.037 170.686 94.4937 170.686 84.9708C170.686 76.0601 169.565 70.6865 168.037 67.9317C166.577 65.3129 164.811 64.2926 161.857 64.2926H156.661V106.873V106.907Z" fill="white"/>
<path d="M205.73 99.7314C214.491 99.7314 221.18 111.771 221.18 128.198C221.18 144.625 214.525 156.665 205.73 156.665C196.935 156.665 190.313 144.625 190.313 128.198C190.313 111.771 196.969 99.7314 205.73 99.7314ZM200.806 152.005C202.062 154.25 203.76 155.372 205.73 155.372C207.699 155.372 209.397 154.25 210.653 152.005C212.759 148.23 213.676 142.244 213.676 128.198C213.676 114.152 212.759 108.132 210.653 104.391C209.397 102.146 207.699 101.024 205.73 101.024C203.76 101.024 202.096 102.146 200.806 104.391C198.7 108.166 197.784 114.186 197.784 128.198C197.784 142.21 198.7 148.264 200.806 152.005Z" fill="white"/>
<path d="M238.193 99.7314C240.298 99.7314 242.064 100.99 243.32 101.976C243.965 102.486 244.305 102.588 244.882 102.588C245.595 102.588 246.003 101.976 246.207 101.228C246.343 100.718 246.41 100.48 246.682 100.48C246.954 100.48 247.022 100.718 247.022 101.228V115.784C247.022 116.294 246.886 116.533 246.614 116.533C246.343 116.533 246.275 116.294 246.275 115.784C246.275 107.146 242.981 100.99 238.193 100.99C235.103 100.99 233.065 104.731 233.065 110.377C233.065 114.764 234.525 118.165 240.094 120.648C247.191 123.913 249.704 129.661 249.704 138.707C249.704 148.74 244.95 156.631 238.43 156.631C233.812 156.631 232.046 152.754 230.077 152.754C228.753 152.754 228.379 153.774 228.175 155.134C228.107 155.644 227.972 155.882 227.7 155.882C227.428 155.882 227.36 155.644 227.36 155.134V136.327C227.36 135.816 227.428 135.578 227.7 135.578C227.972 135.578 228.039 135.816 228.039 136.327C228.039 143.469 231.537 155.372 238.43 155.372C243.286 155.372 245.222 150.747 245.222 144.353C245.222 138.469 243.32 134.592 237.921 132.211C231.198 129.184 228.583 124.049 228.583 115.172C228.583 106.295 232.794 99.7655 238.193 99.7655" fill="white"/>
<path d="M266.276 125.171C268.721 125.171 270.894 126.055 272.32 127.041V114.117C272.32 104.595 269.807 100.955 266.344 100.955C262.88 100.955 261.012 103.336 261.012 106.703C261.012 109.832 262.337 110.478 262.337 114.73C262.337 117.723 260.944 120.239 259.179 120.239C257.209 120.239 255.885 117.484 255.885 113.335C255.885 107.962 259.96 99.6631 266.344 99.6631C274.901 99.6631 279.247 106.941 279.247 119.457V148.91C279.247 152.923 280.028 154.556 281.285 154.556C282.405 154.556 283.254 153.808 284.171 152.685C284.443 152.311 284.782 153.297 284.511 153.705C283.322 155.474 281.353 156.596 279.315 156.596C276.021 156.596 273.508 153.093 272.863 147.312H272.592C270.826 154.454 267.973 156.596 264.748 156.596C258.16 156.596 254.56 150.202 254.56 140.918C254.56 131.633 258.839 125.137 266.276 125.137M267.125 154.352C269.705 154.352 271.675 150.202 272.32 144.591V128.3C271.131 127.177 269.23 126.429 267.396 126.429C263.966 126.429 261.861 130.578 261.861 140.986C261.861 149.522 263.763 154.386 267.125 154.386" fill="white"/>
<path d="M98.8319 179.248C103.484 179.248 108.374 180.88 112.109 182.513C114.486 183.499 116.626 184.145 118.765 184.145C121.889 184.145 123.281 183.023 124.164 181.152C124.402 180.642 124.538 180.404 124.911 180.404C125.285 180.404 125.421 180.642 125.421 181.152V208.837C125.421 209.347 125.285 209.585 124.809 209.585C124.334 209.585 124.198 209.347 124.198 208.837C122.942 193.668 114.418 180.506 98.8998 180.506C92.38 180.506 87.7618 182.513 84.5019 185.914C78.1179 192.546 76.7257 205.708 76.7257 226.658C76.7257 247.608 78.2198 260.634 84.5019 266.892C88.2712 270.667 92.0065 272.776 98.8998 272.776C110.309 272.776 114.418 266.382 114.418 258.22V237.677H102.397C101.888 237.677 101.65 237.541 101.65 237.065C101.65 236.589 101.888 236.453 102.397 236.453H137.985C138.494 236.453 138.732 236.589 138.732 237.065C138.732 237.541 138.494 237.677 137.985 237.677H128.714V271.756C128.714 272.266 128.579 272.504 128.205 272.504C127.831 272.504 127.696 272.266 127.458 271.756C126.439 270.123 124.198 269.001 120.7 269.001C113.569 269.001 109.562 274 98.8998 274C76.3522 274 59.0679 253.696 59.0679 226.624C59.0679 199.552 78.3556 179.248 98.8998 179.248" fill="white"/>
<path d="M157.306 242.541C159.751 242.541 161.925 243.425 163.351 244.411V231.487C163.351 221.964 160.838 218.325 157.408 218.325C153.979 218.325 152.077 220.706 152.077 224.107C152.077 227.236 153.401 227.882 153.401 232.133C153.401 235.126 152.009 237.643 150.243 237.643C148.274 237.643 146.949 234.888 146.949 230.739C146.949 225.365 151.024 217.067 157.408 217.067C165.965 217.067 170.312 224.345 170.312 236.861V266.314C170.312 270.327 171.093 271.96 172.349 271.96C173.47 271.96 174.319 271.211 175.236 270.089C175.507 269.715 175.881 270.701 175.575 271.109C174.387 272.878 172.417 274 170.38 274C167.086 274 164.573 270.497 163.928 264.715H163.656C161.891 271.858 159.038 274 155.812 274C149.224 274 145.625 267.606 145.625 258.321C145.625 249.037 149.904 242.541 157.34 242.541M158.189 271.755C160.77 271.755 162.739 267.606 163.385 261.995V245.704C162.196 244.581 160.295 243.833 158.495 243.833C155.065 243.833 152.96 247.982 152.96 258.355C152.96 266.892 154.861 271.755 158.223 271.755" fill="white"/>
<path d="M200.296 234.786C198.531 234.786 197.342 232.644 197.342 229.889C197.342 224.753 199.176 224.379 199.176 221.114C199.176 219.72 198.531 218.869 197.274 218.869C194.184 218.869 191.094 225.263 190.483 236.419V271.245H195.814C196.086 271.245 196.222 271.381 196.222 271.858C196.222 272.334 196.086 272.47 195.814 272.47H178.632C178.36 272.47 178.224 272.334 178.224 271.858C178.224 271.381 178.36 271.245 178.632 271.245H183.555V219.856H179.073C178.801 219.856 178.666 219.72 178.666 219.244C178.666 218.767 178.801 218.631 179.073 218.631H189.6C190.177 218.631 190.381 218.869 190.381 219.89V222.032C190.381 224.787 190.245 228.8 190.245 231.317L190.449 231.453C191.026 223.189 194.524 217.169 198.225 217.169C201.926 217.169 204.337 221.182 204.337 226.692C204.337 231.589 202.3 234.82 200.33 234.82" fill="white"/>
<path d="M222.199 217.101C227.191 217.101 229.704 221.726 231.028 226.624L231.232 226.386C231.164 225.127 231.028 218.87 231.028 213.972V179.384H226.546C226.274 179.384 226.138 179.248 226.138 178.771C226.138 178.295 226.274 178.159 226.546 178.159H237.208C237.751 178.159 237.989 178.397 237.989 179.418V271.279H242.404C242.675 271.279 242.811 271.415 242.811 271.892C242.811 272.368 242.675 272.504 242.404 272.504H231.945C231.401 272.504 231.164 272.266 231.164 271.245V270.361C231.164 267.742 231.367 264.477 231.435 262.471L231.232 262.335C229.975 268.967 227.36 274 222.199 274C214.626 274 208.514 261.348 208.514 245.534C208.514 229.719 214.626 217.067 222.199 217.067M219.381 268.457C220.773 270.973 222.199 271.96 223.795 271.96C227.293 271.96 230.315 266.824 231.028 258.798V229.855C229.907 223.699 227.157 219.074 223.795 219.074C222.199 219.074 220.773 220.06 219.381 222.577C217.615 225.706 216.019 232.984 216.019 245.534C216.019 258.083 217.615 265.328 219.381 268.457Z" fill="white"/>
<path d="M262.404 217.101C270.418 217.101 274.901 229.004 274.901 241.282C274.901 242.03 274.697 242.54 274.255 242.54H255.036V245.533C255.036 259.58 256.02 265.225 257.99 268.728C259.246 270.973 260.876 272.231 263.253 272.231C267.804 272.231 272.014 266.586 273.78 259.58C273.848 259.206 274.493 259.818 274.391 260.192C272.49 267.47 267.804 273.966 262.404 273.966C254.187 273.966 247.531 261.926 247.531 245.499C247.531 229.072 254.56 217.033 262.404 217.033M257.854 221.182C255.885 224.685 254.968 231.725 254.968 241.248H267.396C268.007 241.248 268.109 241.112 268.109 239.888C268.109 229.991 267.26 223.699 265.596 220.706C264.612 218.937 263.423 218.189 262.167 218.189C260.401 218.189 259.212 218.801 257.888 221.182" fill="white"/>
<path d="M279.791 271.245H284.714V219.856H280.639C280.368 219.856 280.232 219.72 280.232 219.243C280.232 218.767 280.368 218.631 280.639 218.631H290.725C291.302 218.631 291.506 218.869 291.506 219.89V220.774C291.506 222.78 291.37 226.284 291.234 228.426L291.438 228.664C292.491 222.78 295.445 217.135 300.912 217.135C308.009 217.135 311.914 224.039 311.914 236.555V271.279H315.989C316.261 271.279 316.397 271.415 316.397 271.891C316.397 272.368 316.261 272.504 315.989 272.504H300.572C300.301 272.504 300.165 272.504 300.165 271.891C300.165 271.279 300.301 271.279 300.572 271.279H304.987V234.684C304.987 223.529 302.406 219.515 298.671 219.515C294.936 219.515 292.423 224.923 291.642 231.929V271.279H296.056C296.328 271.279 296.464 271.415 296.464 271.891C296.464 272.368 296.328 272.504 296.056 272.504H279.791C279.519 272.504 279.383 272.368 279.383 271.891C279.383 271.415 279.519 271.279 279.791 271.279" fill="white"/>
<path d="M319.555 271.245H324.478V219.856H320.268C319.996 219.856 319.86 219.72 319.86 219.243C319.86 218.767 319.996 218.631 320.268 218.631H330.659C331.202 218.631 331.44 218.869 331.44 219.89V271.279H335.854C336.126 271.279 336.262 271.415 336.262 271.891C336.262 272.367 336.126 272.504 335.854 272.504H319.589C319.317 272.504 319.181 272.367 319.181 271.891C319.181 271.415 319.317 271.279 319.589 271.279M327.535 179.281C330.047 179.281 332.017 183.056 332.017 187.172C332.017 191.287 330.047 194.926 327.535 194.926C325.022 194.926 323.12 191.287 323.12 187.172C323.12 183.056 325.022 179.281 327.535 179.281Z" fill="white"/>
<path d="M352.663 242.541C355.108 242.541 357.281 243.425 358.707 244.411V231.487C358.707 221.964 356.195 218.325 352.731 218.325C349.267 218.325 347.4 220.706 347.4 224.107C347.4 227.236 348.724 227.882 348.724 232.133C348.724 235.126 347.332 237.643 345.566 237.643C343.596 237.643 342.272 234.888 342.272 230.739C342.272 225.365 346.347 217.067 352.731 217.067C361.288 217.067 365.635 224.345 365.635 236.861V266.314C365.635 270.327 366.416 271.96 367.672 271.96C368.793 271.96 369.642 271.211 370.559 270.089C370.83 269.715 371.17 270.701 370.898 271.109C369.71 272.878 367.74 274 365.703 274C362.409 274 359.896 270.497 359.251 264.715H358.979C357.213 271.858 354.361 274 351.135 274C344.547 274 340.948 267.606 340.948 258.321C340.948 249.037 345.226 242.541 352.663 242.541ZM353.512 271.755C356.093 271.755 358.062 267.606 358.707 261.995V245.704C357.519 244.581 355.617 243.833 353.784 243.833C350.354 243.833 348.249 247.982 348.249 258.355C348.249 266.892 350.15 271.755 353.512 271.755Z" fill="white"/>
</g>
<defs>
<clipPath id="clip0_947_15208">
<rect width="312" height="211" fill="white" transform="translate(59 63)"/>
</clipPath>
</defs>
</svg>
