<svg width="430" height="340" viewBox="0 0 430 340" fill="none" xmlns="http://www.w3.org/2000/svg">
<mask id="mask0_873_17294" style="mask-type:alpha" maskUnits="userSpaceOnUse" x="0" y="0" width="430" height="340">
<rect width="430" height="340" fill="#D9D9D9"/>
</mask>
<g mask="url(#mask0_873_17294)">
</g>
<g clip-path="url(#clip0_873_17294)">
<path d="M68.9802 125.467L101.834 126.898C101.834 126.898 109.628 126.898 112.479 126.167C115.362 125.435 113.936 129.793 113.936 129.793L109.628 134.405C109.628 134.405 108.487 136.122 105.002 135.836C101.549 135.55 88.5594 135.868 88.5594 135.868C88.5594 135.868 79.055 144.52 78.4847 153.457C77.9144 162.395 81.1459 172.256 91.6325 174.832C102.119 177.44 113.049 175.977 113.049 175.977C113.049 175.977 112.764 180.589 106.428 186.378C106.428 186.378 87.9892 189.845 76.1719 180.303C64.3547 170.761 67.2377 153.712 67.2377 153.712C67.2377 153.712 73.8592 137.236 77.9144 134.914C77.9144 134.914 67.9347 134.055 62.6439 136.949C57.3531 139.844 62.3588 129.729 68.9802 125.403" fill="white"/>
<path d="M67.5544 206.64L100.408 208.071C100.408 208.071 108.202 208.071 111.053 207.339C113.936 206.608 112.511 210.965 112.511 210.965L108.202 215.577C108.202 215.577 107.061 217.295 103.576 217.009C100.123 216.723 87.1336 217.041 87.1336 217.041C87.1336 217.041 77.6292 225.692 77.0589 234.63C76.4886 243.568 79.7202 253.428 90.2068 256.005C100.693 258.613 111.623 257.15 111.623 257.15C111.623 257.15 111.338 261.762 105.002 267.551C105.002 267.551 86.5634 271.018 74.7462 261.476C62.9289 251.933 65.812 234.885 65.812 234.885C65.812 234.885 72.4334 218.408 76.4886 216.086C76.4886 216.086 66.5089 215.228 61.2181 218.122C55.9273 221.017 60.933 210.902 67.5544 206.576" fill="white"/>
<path d="M140.739 154.094V177.758C140.739 177.758 131.203 184.852 125.215 170.888C123.346 166.53 122.902 161.568 124.265 157.02C125.944 151.486 130.157 146.142 140.707 154.094M125.152 143.979C117.073 147.891 113.968 155.112 112.891 161.346C111.56 169.075 113.81 176.963 119.417 182.498C121.952 185.011 126.767 187.301 130.316 187.333C137.317 187.428 140.707 183.293 140.707 183.293L148.469 186.824C148.849 186.983 149.261 186.951 149.578 186.696L156.865 181.003L152.525 177.79V146.873C152.525 146.873 141.278 136.186 125.152 143.979Z" fill="white"/>
<path d="M229.004 154.285V177.949C229.004 177.949 217.979 186.156 212.213 167.548C211.611 165.576 211.389 163.477 211.674 161.441C212.434 155.462 215.634 144.17 229.004 154.285ZM213.448 144.17C205.813 147.86 202.613 154.539 201.378 160.551C199.698 168.789 202.106 177.504 208.284 183.229C210.692 185.456 215.191 187.46 218.486 187.523C225.582 187.682 229.036 183.484 229.036 183.484L236.924 187.078C237.209 187.205 237.526 187.174 237.78 186.983L245.162 181.194L240.821 177.981V147.064C240.821 147.064 229.574 136.377 213.448 144.17Z" fill="white"/>
<path d="M263.759 234.63V258.295C263.759 258.295 251.656 267.296 246.175 245.063C246.175 245.063 246.175 221.366 263.759 234.662M248.203 224.547C240.568 228.237 237.368 234.916 236.132 240.928C234.485 249.007 236.798 257.595 242.722 263.32C244.908 265.42 247.538 267.169 250.516 267.646C259.45 269.141 263.759 263.861 263.759 263.861L270.919 267.105C271.647 267.424 272.503 267.328 273.136 266.851L278.459 262.652C279.188 262.08 279.156 260.998 278.459 260.458L275.576 258.327V227.442C275.576 227.442 264.329 216.754 248.203 224.547Z" fill="white"/>
<path d="M158.037 125.467L170.139 122V144.838C170.139 144.838 179.929 135.582 191.176 144.838C202.423 154.094 197.227 172.001 197.227 172.001C197.227 172.001 192.031 186.251 176.191 187.078C160.35 187.905 158.037 179.54 158.037 179.54V125.467ZM183.382 177.727C188.578 173.91 191.461 165.64 185.125 155.271C178.789 144.901 169.284 152.344 169.284 152.344V176.041C169.284 176.041 178.218 181.544 183.414 177.727" fill="white"/>
<path d="M269.302 152.344C269.302 152.344 271.9 155.271 274.783 152.344C278.807 148.273 282.292 148.019 279.409 145.697C276.526 143.375 264.138 138.763 257.2 143.088C253.683 145.283 249.248 149.514 247.094 155.589C241.486 171.27 254.38 187.873 270.918 186.124C271.045 186.124 271.171 186.124 271.33 186.092L278.838 177.759C278.838 177.759 269.112 179.253 263.156 174.928C257.2 170.602 256.218 167.421 256.63 160.487C256.946 155.302 258.942 146.619 269.302 152.408" fill="white"/>
<path d="M305.641 152.98C305.641 152.98 308.239 155.907 311.122 152.98C315.146 148.909 318.631 148.655 315.748 146.333C312.865 144.011 300.477 139.399 293.539 143.724C290.022 145.951 285.587 150.15 283.432 156.225C277.825 171.906 290.719 188.509 307.257 186.76C307.384 186.76 307.51 186.76 307.669 186.728L315.177 178.395C315.177 178.395 305.451 179.889 299.495 175.564C293.539 171.238 292.557 168.057 292.969 161.123C293.285 155.938 295.281 147.255 305.641 153.044" fill="white"/>
<path d="M221.939 234.535C221.939 234.535 224.537 237.461 227.42 234.535C231.443 230.463 234.928 230.209 232.045 227.887C229.162 225.565 216.775 220.953 209.837 225.279C206.32 227.505 201.885 231.704 199.73 237.779C194.123 253.46 207.017 270.064 223.555 268.314C223.681 268.314 223.808 268.314 223.967 268.283L231.475 259.949C231.475 259.949 221.749 261.444 215.793 257.118C209.837 252.792 208.855 249.612 209.266 242.678C209.583 237.493 211.579 228.809 221.939 234.598" fill="white"/>
<path d="M324.904 150.213C324.904 150.213 334.092 138.635 347.366 142.675C356.459 145.474 362.954 153.935 363.302 163.477C363.492 168.852 361.877 175.15 355.762 180.939C348.412 187.873 341.22 188.223 335.834 186.855C329.688 185.297 324.777 180.748 321.831 175.118C318.505 168.757 316.255 159.183 324.936 150.181M334.44 173.115C339.795 178.649 344.325 179.444 347.271 179.126C349.552 178.84 351.453 177.218 352.34 175.087C353.861 171.365 355.318 164.558 349.426 158.006C343.248 151.104 335.929 151.167 332.223 151.772C330.67 152.026 329.466 153.171 329.086 154.698C328.199 158.451 327.629 166.085 334.44 173.146" fill="white"/>
<path d="M115.267 232.69C115.267 232.69 124.454 221.112 137.729 225.152C146.821 227.951 153.316 236.411 153.665 245.954C153.855 251.329 152.239 257.627 146.124 263.416C138.774 270.35 131.583 270.7 126.197 269.332C120.05 267.774 115.14 263.225 112.193 257.595C108.867 251.234 106.617 241.66 115.298 232.658M124.803 255.591C130.157 261.126 134.687 261.921 137.634 261.603C139.946 261.317 141.816 259.694 142.703 257.563C144.223 253.842 145.649 247.035 139.788 240.483C133.61 233.581 126.292 233.644 122.585 234.249C121.033 234.503 119.829 235.648 119.448 237.175C118.561 240.928 117.991 248.562 124.803 255.623" fill="white"/>
<path d="M332.57 232.69C332.57 232.69 341.758 221.112 355.032 225.152C364.125 227.951 370.62 236.411 370.968 245.954C371.158 251.329 369.543 257.627 363.428 263.416C356.078 270.35 348.886 270.7 343.5 269.332C337.354 267.774 332.444 263.225 329.497 257.595C326.171 251.234 323.921 241.66 332.602 232.658M342.106 255.591C347.461 261.126 351.991 261.921 354.937 261.603C357.218 261.317 359.119 259.694 360.006 257.563C361.527 253.842 362.953 247.035 357.092 240.483C350.914 233.581 343.595 233.644 339.889 234.249C338.336 234.503 337.132 235.648 336.752 237.175C335.865 240.928 335.295 248.562 342.106 255.623" fill="white"/>
<path d="M166.115 239.688C165.102 238.384 164.5 236.602 165.957 234.503C167.478 232.276 170.329 231.354 172.99 231.831C175.24 232.213 178.345 233.199 182.051 235.394C182.051 235.394 184.934 239.37 187.532 236.793C190.13 234.217 192.443 231.545 192.443 231.545C192.443 231.545 184.966 223.688 175.715 223.466C166.496 223.243 152.651 231.036 156.389 244.745C160.128 258.486 178.281 247.799 178.281 247.799C178.281 247.799 188.071 247.194 185.79 256.45C183.477 265.706 166.559 258.359 162.726 253.842L153.696 259.854C153.696 259.854 161.268 269.873 169.917 269.936C178.566 270 189.813 265.897 194.407 258.168C199.001 250.439 195.167 242.932 189.782 240.133C185.536 237.938 177.743 241.087 172.547 241.946C170.139 242.328 167.605 241.564 166.115 239.656" fill="white"/>
<path d="M284.319 233.994V266.692C284.319 267.392 284.795 267.964 285.492 268.092L293.475 269.587C294.553 269.777 295.566 268.95 295.566 267.837V235.934C295.566 235.934 298.735 231.609 302.758 231.895C306.782 232.181 308.809 233.962 308.809 233.962V261.889C308.809 262.812 309.253 263.702 309.981 264.307L314.29 267.678C314.797 268.092 315.526 268.092 316.064 267.678L324.111 261.635L320.563 260.172C320.088 259.981 319.771 259.504 319.771 258.995L319.486 231.354C319.486 230.782 319.264 230.241 318.884 229.827C317.332 228.142 312.801 223.911 306.813 224.229C299.305 224.611 295.281 230.527 295.281 230.527L289.959 224.293C289.547 223.816 288.85 223.784 288.375 224.197L282.292 229.955C281.975 230.273 281.912 230.782 282.197 231.131L284.319 233.899V233.994Z" fill="white"/>
</g>
<defs>
<clipPath id="clip0_873_17294">
<rect width="312" height="148" fill="white" transform="translate(59 122)"/>
</clipPath>
</defs>
</svg>
